<svg xmlns="http://www.w3.org/2000/svg" viewBox="0 -0.5 48 28" shape-rendering="crispEdges">
<metadata>Made with Pixels to Svg https://codepen.io/shshaw/pen/XbxvNj</metadata>
<path stroke="#000000" d="M2 0h44M1 1h1M46 1h1M0 2h1M47 2h1M0 3h1M47 3h1M0 4h1M47 4h1M0 5h1M47 5h1M0 6h1M47 6h1M0 7h1M47 7h1M0 8h1M47 8h1M0 9h1M47 9h1M0 10h1M47 10h1M0 11h1M47 11h1M0 12h1M47 12h1M0 13h1M47 13h1M0 14h1M47 14h1M0 15h1M47 15h1M0 16h1M47 16h1M0 17h1M47 17h1M0 18h1M47 18h1M0 19h1M47 19h1M0 20h1M47 20h1M0 21h1M47 21h1M0 22h1M47 22h1M0 23h1M47 23h1M0 24h1M47 24h1M0 25h1M47 25h1M1 26h1M46 26h1M2 27h44" />
<path stroke="#6666a9" d="M2 1h43M1 2h1M1 3h1M1 4h1M1 5h1M1 17h1M46 17h1M2 18h44" />
<path stroke="#3f3f74" d="M45 1h1M46 2h1M46 3h1M46 4h1M46 5h1M46 6h1M46 7h1M46 8h1M46 9h1M46 10h1M46 11h1M46 12h1M46 13h1M46 14h1M46 15h1M46 16h1M41 17h5M1 19h1M1 20h44M1 21h44M1 22h44M1 23h44M1 24h44M1 25h44" />
<path stroke="#565699" d="M2 2h44M2 3h44M2 4h44M2 5h7M13 5h2M21 5h2M29 5h2M33 5h4M39 5h7M1 6h8M13 6h2M21 6h2M29 6h2M33 6h4M39 6h7M1 7h10M13 7h2M17 7h2M21 7h4M27 7h4M35 7h2M39 7h7M1 8h10M13 8h2M17 8h2M21 8h4M27 8h4M35 8h2M39 8h7M1 9h10M13 9h2M17 9h2M21 9h4M27 9h4M33 9h2M39 9h7M1 10h10M13 10h2M17 10h2M21 10h4M27 10h4M33 10h2M39 10h7M1 11h6M9 11h2M13 11h2M17 11h2M21 11h4M27 11h4M33 11h4M39 11h7M1 12h6M9 12h2M13 12h2M17 12h2M21 12h4M27 12h4M33 12h4M39 12h7M1 13h6M13 13h2M21 13h2M29 13h2M33 13h4M39 13h7M1 14h6M13 14h2M21 14h2M29 14h2M33 14h4M39 14h7M1 15h45M1 16h45M2 17h39" />
<path stroke="#ffffff" d="M9 5h4M15 5h6M23 5h6M31 5h2M37 5h2M9 6h4M15 6h6M23 6h6M31 6h2M37 6h2M11 7h2M15 7h2M19 7h2M25 7h2M31 7h4M37 7h2M11 8h2M15 8h2M19 8h2M25 8h2M31 8h4M37 8h2M11 9h2M15 9h2M19 9h2M25 9h2M31 9h2M35 9h4M11 10h2M15 10h2M19 10h2M25 10h2M31 10h2M35 10h4M7 11h2M11 11h2M15 11h2M19 11h2M25 11h2M31 11h2M37 11h2M7 12h2M11 12h2M15 12h2M19 12h2M25 12h2M31 12h2M37 12h2M7 13h6M15 13h6M23 13h6M31 13h2M37 13h2M7 14h6M15 14h6M23 14h6M31 14h2M37 14h2" />
<path stroke="#35355f" d="M1 18h1M46 18h1M2 19h45M45 20h2M45 21h2M45 22h2M45 23h2M45 24h2M45 25h2M2 26h44" />
</svg>